<svg id="Layer_1" data-name="Layer 1" xmlns="http://www.w3.org/2000/svg" viewBox="0 0 40 40"><defs><style>.cls-1{fill:#004b8b;}.cls-1,.cls-2,.cls-3,.cls-4,.cls-5,.cls-6,.cls-7{fill-rule:evenodd;}.cls-2{fill:#fff;}.cls-3{fill:#00a3de;}.cls-4{fill:#028fce;}.cls-5{fill:#0076ba;}.cls-6{fill:#df2e22;}.cls-7{fill:#b41f1f;}</style></defs><title>Artboard 1</title><path class="cls-1" d="M29.19,27.72l-3.88-2-.69-.36a6.77,6.77,0,0,1-.77.74A8.92,8.92,0,0,1,9.13,19.28a12.81,12.81,0,0,1,0-1.35L4,16V14.37l4.08-1.68,2.8,1.21.64-.75a8.92,8.92,0,0,1,15.19,4.14c.06.27.1.53.17.93l10.31,2.94-.11,2.32-7.93,4.24Zm-4.46-1.44,4.39,2.29,8.75-4.75L38,20.6l-10.41-3h0A9.68,9.68,0,0,0,10.67,13L8.05,11.85l-4.77,2v2.64l5.12,2q0,.36,0,.73a9.68,9.68,0,0,0,16.36,7Zm1.84-4.34h0ZM18.22,11.53a7.72,7.72,0,0,0-6,2.86l4.31,1.39,3.81.89-5.17,2.16-1.38.92-3.25-1.35a7.74,7.74,0,1,0,7.69-6.86Z"/><polygon class="cls-2" points="13.8 19.73 4.04 16.01 4.04 14.37 8.12 12.69 11.48 14.15 16.53 15.77 16.63 17.6 13.8 19.73"/><polygon class="cls-3" points="14.69 16.48 18.37 17.93 21.98 16.48 18.37 15.06 14.69 16.48"/><polygon class="cls-4" points="14.69 16.48 18.37 17.93 18.36 22.79 14.69 20.75 14.69 16.48"/><polygon class="cls-5" points="21.98 16.48 18.37 17.93 18.39 22.79 21.98 20.75 21.98 16.48"/><polygon class="cls-6" points="29.07 26.47 35.79 22.82 35.79 21.91 23.8 18.32 18.38 21.02 18.38 21.51 29.07 26.47"/><polygon class="cls-7" points="29.07 26.47 35.79 22.82 35.79 21.91 29.07 25.37 29.07 26.47"/></svg>